<svg xmlns="http://www.w3.org/2000/svg" width="32" height="32" viewBox="0 0 260 260" fill="none" preserveAspectRatio="xMidYMid meet"><circle fill="#ffffff" cx="124.5" cy="133.5" r="112.5"></circle><path fill="#73be89" d="M131.61,10C63.48,10,8.25,63.28,8.25,129c0,44.15,24.92,82.68,61.93,103.22C65.52,221.89,61,208.45,61,195.16c0-.37,0-.75,0-1.12v-.11a48,48,0,0,1,1.83-12.56c0-.06,0-.11.05-.16.13-.44.26-.88.41-1.32,0-.06,0-.12.05-.17.14-.41.28-.82.43-1.22.06-.15.11-.29.16-.43.15-.4.31-.78.47-1.17l.16-.39c.19-.42.37-.84.57-1.26a39.9,39.9,0,0,1,13.19-15.9,50.55,50.55,0,0,1,6.25-3.95c7.54-4.21,12.39-4.7,12.39-4.7h0C159,141.37,165.7,88,165.7,88c-3,2.16-16.61,3.62-16.61,3.62-51.58,3.24-64.84,28.8-66.82,49.4-3.26-7.69-8.5-30.75-8.5-39.58,0-36.39,30.58-65.89,68.3-65.89s68.31,29.5,68.31,65.89-30.58,65.9-68.31,65.9a70,70,0,0,1-29.51-6.47h0l-.76-.35C108,158.89,90.3,153,74,170.59c-2.93,3.4-10.47,14.48-7.56,36.25a91.4,91.4,0,0,0,2.8,10.82,134.41,134.41,0,0,0,7.44,17.9,126.47,126.47,0,0,0,55,12.44C199.74,248,255,194.72,255,129S199.74,10,131.61,10Z"></path></svg>
