<svg width="1957" height="2500" viewBox="0 0 256 327" xmlns="http://www.w3.org/2000/svg" preserveAspectRatio="xMinYMin meet"><path d="M 69.3 0 c -1.7 0.1 -3.4 0.7 -5.5 2.3 C 58.9 0.4 54.1 -0.3 49.8 3.6 c -6.6 -0.9 -8.8 0.9 -10.4 3 c -1.5 0 -10.9 -1.5 -15.2 5 C 13.3 10.2 9.9 17.9 13.8 25.1 c -2.2 3.4 -4.5 6.8 0.7 13.4 c -1.8 3.6 -0.7 7.6 3.6 12.4 c -1.1 5.1 1.1 8.7 5.1 11.6 c -0.8 7 6.4 11.1 8.6 12.5 c 0.8 4.1 2.5 7.9 10.7 10.1 c 1.4 6.1 6.3 7.1 11.1 8.4 c -15.8 9.2 -29.3 21.3 -29.2 50.9 l -2.3 4.1 c -18.1 11 -34.4 46.4 -8.9 75.1 c 1.7 9 4.5 15.5 6.9 22.6 c 3.7 28.8 28 42.3 34.4 43.9 c 9.4 7.1 19.4 13.9 32.9 18.7 c 12.7 13.1 26.5 18.1 40.4 18.1 c 0.2 0 28.3 -5 41 -18.1 c 13.5 -4.7 23.5 -11.5 32.9 -18.7 c 6.4 -1.6 30.6 -15.1 34.4 -43.9 c 2.5 -7.2 5.3 -13.6 6.9 -22.6 c 25.5 -28.8 9.2 -64.1 -8.9 -75.2 l -2.3 -4.1 c 0.1 -29.6 -13.4 -41.7 -29.2 -50.9 c 4.8 -1.3 9.7 -2.3 11.1 -8.4 c 8.2 -2.1 9.9 -6 10.7 -10.1 c 2.1 -1.5 9.3 -5.5 8.6 -12.5 c 4 -2.8 6.3 -6.4 5.1 -11.6 c 4.3 -4.8 5.5 -8.7 3.6 -12.4 c 5.2 -6.5 2.9 -9.9 0.7 -13.4 c 3.9 -7.2 0.5 -14.8 -10.4 -13.5 c -4.3 -6.4 -13.7 -5 -15.2 -5 c -1.6 -2.1 -3.8 -3.8 -10.4 -3 c -4.3 -3.9 -9.1 -3.2 -14 -1.3 c -5.9 -4.6 -9.8 -0.9 -14.2 0.5 c -7.1 -2.3 -8.7 0.9 -12.2 2.2 c -7.8 -1.6 -10.1 1.9 -13.8 5.7 l -4.3 -0.1 c -11.7 6.9 -17.5 20.9 -19.6 28.1 c -2.1 -7.2 -7.9 -21.3 -19.6 -28.1 l -4.3 0.1 c -3.7 -3.8 -6.1 -7.3 -13.8 -5.7 C 86.8 3.6 85.2 0.4 78 2.7 c -2.9 -0.9 -5.6 -2.8 -8.7 -2.7 L -11 141"/><path d="M 46 30.3 c 31 16 49.1 28.9 59 40 c -5.1 20.3 -31.5 21.2 -41.1 20.6 c 2 -0.9 3.6 -2 4.2 -3.7 c -2.4 -1.7 -11 -0.2 -17 -3.6 c 2.3 -0.5 3.4 -0.9 4.5 -2.6 c -5.7 -1.8 -11.8 -3.4 -15.4 -6.4 c 1.9 0 3.7 0.4 6.3 -1.3 c -5.1 -2.7 -10.5 -4.9 -14.7 -9.1 c 2.6 -0.1 5.5 0 6.3 -1 c -4.6 -2.9 -8.6 -6.1 -11.8 -9.6 c 3.7 0.4 5.2 0.1 6.1 -0.6 c -3.5 -3.6 -8 -6.6 -10.1 -11.1 c 2.7 0.9 5.2 1.3 7 -0.1 c -1.2 -2.7 -6.3 -4.3 -9.2 -10.6 c 2.9 0.3 5.9 0.6 6.5 0 c -1.3 -5.4 -3.6 -8.5 -5.9 -11.6 c 6.1 -0.1 15.5 0 15 -0.5 L 31.9 15.4 c 6 -1.6 12.1 0.3 16.6 1.7 c 2 -1.6 0 -3.6 -2.5 -5.6 c 5.1 0.7 9.7 1.9 13.9 3.5 c 2.2 -2 -1.4 -4 -3.2 -6 c 7.9 1.5 11.2 3.6 14.5 5.7 c 2.4 -2.3 0.1 -4.3 -1.5 -6.3 c 5.9 2.2 9 5 12.2 7.8 c 1.1 -1.5 2.8 -2.6 0.7 -6.1 c 4.2 2.4 7.4 5.3 9.7 8.5 c 2.6 -1.7 1.6 -3.9 1.6 -6 c 4.4 3.6 7.2 7.4 10.6 11.1 c 0.7 -0.5 1.3 -2.2 1.8 -4.9 c 10.5 10.1 25.2 35.7 3.8 45.8 c -18.2 -15 -40 -26 -64.2 -34.2 l 0 0 M 210.7 30.3 c -31 16 -49.1 28.9 -59 40 c 5.1 20.3 31.5 21.2 41.1 20.6 c -2 -0.9 -3.6 -2 -4.2 -3.7 c 2.4 -1.7 11 -0.2 17 -3.6 c -2.3 -0.5 -3.4 -0.9 -4.5 -2.6 c 5.7 -1.8 11.8 -3.4 15.4 -6.4 c -1.9 0 -3.7 0.4 -6.3 -1.3 c 5.1 -2.7 10.5 -4.9 14.7 -9.1 c -2.6 -0.1 -5.5 0 -6.3 -1 c 4.6 -2.9 8.6 -6.1 11.8 -9.6 c -3.7 0.4 -5.2 0.1 -6.1 -0.6 c 3.5 -3.6 8 -6.6 10.1 -11.1 c -2.7 0.9 -5.2 1.3 -7 -0.1 c 1.2 -2.7 6.3 -4.3 9.2 -10.6 c -2.9 0.3 -5.9 0.6 -6.5 0 c 1.3 -5.4 3.6 -8.5 5.9 -11.6 c -6.1 -0.1 -15.5 0 -15 -0.5 l 3.8 -3.9 c -6 -1.6 -12.1 0.3 -16.6 1.7 c -2 -1.6 0 -3.6 2.5 -5.6 c -5.1 0.7 -9.7 1.9 -13.9 3.5 c -2.2 -2 1.4 -4 3.2 -6 c -7.9 1.5 -11.2 3.6 -14.5 5.7 c -2.4 -2.3 -0.1 -4.3 1.5 -6.3 c -5.9 2.2 -9 5 -12.2 7.8 c -1.1 -1.5 -2.8 -2.6 -0.7 -6.1 c -4.2 2.4 -7.4 5.3 -9.7 8.5 c -2.6 -1.7 -1.6 -3.9 -1.6 -6 c -4.4 3.6 -7.2 7.4 -10.6 11.1 c -0.7 -0.5 -1.3 -2.2 -1.8 -4.9 c -10.5 10.1 -25.2 35.7 -3.8 45.8 c 18.2 -15.1 40 -26 64.2 -34.2 h 0" fill="#75a928"/><path d="M 165.9 236.9 c 0.1 18.9 -16.4 34.4 -37 34.5 c -20.5 0.1 -37.3 -15.2 -37.4 -34.1 a 21.7 21.7 0 0 1 0 -0.4 c -0.1 -18.9 16.4 -34.4 37 -34.5 c 20.5 -0.1 37.3 15.2 37.4 34.1 v 0.4 M 107.2 139 c 15.4 10.1 18.2 33 6.2 51.1 c -12 18.1 -34.2 24.6 -49.6 14.5 c -15.4 -10.1 -18.2 -33 -6.2 -51.1 c 12 -18.1 34.2 -24.6 49.6 -14.5 M 148.8 137.2 c -15.4 10.1 -18.2 33 -6.2 51.1 c 12 18.1 34.2 24.6 49.6 14.5 c 15.4 -10.1 18.2 -33 6.2 -51.1 c -12 -18.1 -34.2 -24.6 -49.6 -14.5 M 30.3 155.5 c 16.6 -4.5 5.6 68.8 -7.9 62.8 c -14.9 -12 -19.7 -47 7.9 -62.8 M 222.5 154.6 c -16.6 -4.5 -5.6 68.8 7.9 62.8 c 14.9 -12 19.7 -47 -7.9 -62.8 M 165.9 100 c 28.7 -4.8 52.6 12.2 51.6 43.3 c -0.9 11.9 -62.2 -41.6 -51.6 -43.3 M 86.6 99.1 c -28.7 -4.8 -52.6 12.2 -51.6 43.3 c 0.9 11.9 62.2 -41.6 51.6 -43.3 M 127.9 91.9 c -17.1 -0.4 -33.6 12.7 -33.6 20.3 c 0 9.3 13.5 18.8 33.7 19 c 20.6 0.1 33.8 -7.6 33.8 -17.2 c 0.1 -10.8 -18.7 -22.4 -33.9 -22.2 v 0 M 128.9 282 c 14.9 -0.7 35 4.8 35 12.1 c 0.2 7 -18.2 22.9 -36 22.6 c -18.5 0.8 -36.6 -15.1 -36.3 -20.6 c -0.3 -8.1 22.5 -14.4 37.3 -14 M 73.8 239.1 c 10.6 12.8 15.5 35.3 6.6 42 c -8.4 5.1 -28.8 3 -43.3 -17.8 c -9.8 -17.5 -8.5 -35.2 -1.7 -40.5 c 10.3 -6.3 26.1 2.2 38.3 16.4 h 0 M 182 235 c -11.5 13.5 -17.9 38.1 -9.5 46 c 8 6.2 29.6 5.3 45.5 -16.8 c 11.6 -14.8 7.7 -39.6 1.1 -46.2 c -9.8 -7.6 -23.9 2.1 -37 17 v 0" fill="#bc1142"/></svg>